<svg height="3314" viewBox="0 0 3314 3314" width="3314" xmlns="http://www.w3.org/2000/svg" xmlns:xlink="http://www.w3.org/1999/xlink"><mask id="a" fill="#fff"><path d="m0 0h3313.663v2255.377h-3313.663z" fill="#fff" fill-rule="evenodd"/></mask><g fill="none" fill-rule="evenodd"><circle cx="1657" cy="1657" fill="#fff" r="1653"/><path d="m114.758166 2254.27789c-230.293574-550.91601-136.2996165-1348.346257 486.714034-1868.349818 600.50997-501.206864 1455.74399-515.301769 2065.39576-35.980753 657.90534 517.249504 765.98373 1323.465501 538.07771 1905.430101-55.3534-28.7867-110.80104-56.31679-165.04443-86.025-333.26178-182.4798-614.41639-425.40224-852.74175-720.09676-84.08774-103.98395-176.33292-202.07234-271.07037-296.68413-78.09792-77.98273-173.92442-120.68632-289.52149-96.81085-77.10311 15.91698-144.64556 51.14377-206.54377 98.40255-98.54915 75.23914-176.81461 170.01848-254.8497 264.63027-204.355184 247.79178-433.004701 469.42526-705.310727 642.60619-102.455089 65.15491-211.078009 120.70726-317.020174 180.42735-8.869528 4.995-18.681509 8.325-28.085093 12.45085" fill="#e62642" mask="url(#a)"/><path d="m2412.48948 2297.56789c-9.02661-4.71226-17.8333-9.90623-27.11123-14.07396-142.49886-64.03443-291.03989-83.08245-445.42413-59.37453-177.91414 27.31019-334.34036 104.62273-481.31064 204.10386-154.09103 104.29811-308.16112 208.61716-462.189316 313.01999-2.628397 1.79066-4.534246 4.64943-6.775189 7.00556 49.154145-9.27792 96.119715-22.2 142.132355-37.85518 181.33839-61.72019 346.50847-156.31103 512.27545-249.88612 238.40914-134.58226 489.34243-212.50216 768.4027-162.93962m-1881.397559 575.68158c85.428109-43.52038 172.688765-85.22915 257.341969-131.62924 198.700463-108.91613 377.96545-246.50376 559.87979-380.15404 136.0064-99.93141 282.46357-179.42207 447.91639-220.50254 261.3631-64.90358 512.93517-30.71349 749.37563 90.21368 143.11669 73.18669 276.48423 165.26433 414.09281 249.06933 32.62981 19.87528 64.73603 40.60924 97.03075 60.91386-602.25875 944.67279-1846.2336 983.02014-2525.637339 332.08895" fill="#020303"/><path d="m363.641098 2688.92036c-26.283961-34.89169-52.295658-69.42735-80.098015-106.34009 54.892639-24.28386 107.094051-46.56764 158.625276-70.30697 198.648104-91.53311 378.92885-212.51264 553.921389-342.13131 154.384242-114.35094 321.093662-203.89442 511.280642-244.17905 212.39744-44.98641 420.20828-35.28962 621.11827 53.2067 9.0999 4.01066 17.88566 8.72292 25.27868 18.18934-33.47802-4.5133-66.91415-9.34075-100.42358-13.50849-310.1298-38.59868-593.82903 36.21113-853.35959 203.84207-134.43565 86.83131-262.462626 183.44319-395.53696 272.44215-134.22622 89.77387-277.133478 164.20669-427.444226 224.1048-3.748868 1.48699-7.612924 2.67029-13.361886 4.68085" fill="#020303"/><g fill="#fefefe"><path d="m2412.48948 2297.56789c-279.06027-49.56254-529.99356 28.35736-768.4027 162.93962-165.76698 93.57509-330.93706 188.16593-512.27545 249.88612-46.01264 15.65518-92.97821 28.57726-142.132355 37.85518 2.240943-2.35613 4.146792-5.2149 6.775189-7.00556 154.028196-104.40283 308.098286-208.72188 462.189316-313.01999 146.97028-99.48113 303.3965-176.79367 481.31064-204.10386 154.38424-23.70792 302.92527-4.6599 445.42413 59.37453 9.27793 4.16773 18.08462 9.3617 27.11123 14.07396"/><path d="m182.13 283.14v-23.4h35.88v23.4zm35.88-76.83v23.4h-35.88v-23.4zm-1.17-136.89c-1.95 14.04-6.24 33.93-10.14 47.58l19.89 4.29h-55.77l17.55-4.29c-.78-12.87-4.29-32.76-10.14-47.58zm-130.26 27.69h-25.74v-42.12h25.74zm-25.74 164.19v-47.19h25.74v42.51zm25.74-84.63h-25.74v-42.12h25.74zm239.46-5.07c-3.9 14.82-8.58 29.25-14.04 42.9-1.56-17.55-2.73-36.66-3.51-57.33h58.5v-35.88h-60.06c-.78-26.13-1.17-53.43-1.17-82.29 12.87 18.33 25.35 41.34 30.81 56.94l31.98-17.94c-6.63-17.55-21.84-42.9-37.83-62.01l-24.96 13.26v-29.25h-40.56c.39 43.29 1.17 84.24 2.34 121.29h-31.2c4.29-12.48 9.75-30.03 15.6-46.8l-26.52-5.07h33.54v-33.93h-39.78v-35.1h-39.39v35.1h-38.22v-21.06h-133.77v40.56h15.21v212.55c-8.19 1.56-15.99 2.73-23.01 3.51l7.8 42.51c23.4-4.68 51.09-10.53 78.78-16.38v66.69h38.61v-308.88h14.82v14.43h30.81l-22.62 5.46c4.68 14.43 7.8 33.54 8.58 46.41h-24.57v35.88h136.89c1.95 44.85 5.46 83.85 10.53 115.44-7.8 10.92-16.38 21.06-25.74 30.03v-128.31h-107.25v163.02h35.49v-22.62h58.5c-8.58 7.02-17.94 13.65-27.69 19.5 8.19 7.41 21.45 22.62 26.52 30.42 18.72-12.87 35.88-28.08 51.09-45.63 9.36 28.47 22.23 44.07 39.78 44.46 13.26 0 31.59-13.65 41.34-76.83-6.63-4.29-23.4-16.38-30.03-25.74-1.56 30.81-4.68 48.75-9.36 48.75-4.68-.39-8.97-10.92-12.48-29.64 18.33-29.25 32.76-62.79 43.29-100.23zm216.06-163.02c-2.73 51.48 2.73 228.54-152.88 314.73 15.6 10.92 30.81 24.96 39 37.05 82.29-50.31 123.24-125.58 144.3-195.78 21.84 71.76 65.52 152.1 153.66 195.78 7.41-12.48 21.45-28.47 35.88-39.39-145.47-68.25-164.97-236.34-168.09-290.16.39-8.19.78-15.99 1.17-22.23z" fill-rule="nonzero" transform="translate(561.53 667.06)"/></g></g></svg>